<svg aria-hidden="true" style="position: absolute; width: 0; height: 0; overflow: hidden;" version="1.1"
   xmlns="http://www.w3.org/2000/svg" xmlns:xlink="http://www.w3.org/1999/xlink">
   <defs>
      <symbol id="icon-search-icon" viewBox="0 0 32 32">
         <path fill="none" stroke="#fff" style="stroke: var(--color1, #fff)" stroke-linejoin="round"
            stroke-linecap="round" stroke-miterlimit="4" stroke-width="2.6667"
            d="M14.667 25.333c5.891 0 10.667-4.776 10.667-10.667s-4.776-10.667-10.667-10.667c-5.891 0-10.667 4.776-10.667 10.667s4.776 10.667 10.667 10.667z">
         </path>
         <path fill="none" stroke="#fff" style="stroke: var(--color1, #fff)" stroke-linejoin="round"
            stroke-linecap="round" stroke-miterlimit="4" stroke-width="2.6667" d="M28 28.001l-5.8-5.8"></path>
      </symbol>
      <symbol id="icon-headerLogo" viewBox="0 0 32 32">
         <path stroke-linejoin="round" stroke-linecap="round" stroke-miterlimit="4" stroke-width="2.6667"
            d="M26.427 2.667h-20.853c-1.605 0-2.907 1.301-2.907 2.907v20.853c0 1.605 1.301 2.907 2.907 2.907h20.853c1.605 0 2.907-1.301 2.907-2.907v-20.853c0-1.605-1.301-2.907-2.907-2.907z">
         </path>
         <path stroke-linejoin="round" stroke-linecap="round" stroke-miterlimit="4" stroke-width="2.6667"
            d="M9.333 2.667v26.667"></path>
         <path stroke-linejoin="round" stroke-linecap="round" stroke-miterlimit="4" stroke-width="2.6667"
            d="M22.667 2.667v26.667"></path>
         <path stroke-linejoin="round" stroke-linecap="round" stroke-miterlimit="4" stroke-width="2.6667"
            d="M2.667 16h26.667"></path>
         <path stroke-linejoin="round" stroke-linecap="round" stroke-miterlimit="4" stroke-width="2.6667"
            d="M2.667 9.333h6.667"></path>
         <path stroke-linejoin="round" stroke-linecap="round" stroke-miterlimit="4" stroke-width="2.6667"
            d="M2.667 22.667h6.667"></path>
         <path stroke-linejoin="round" stroke-linecap="round" stroke-miterlimit="4" stroke-width="2.6667"
            d="M22.667 22.667h6.667"></path>
         <path stroke-linejoin="round" stroke-linecap="round" stroke-miterlimit="4" stroke-width="2.6667"
            d="M22.667 9.333h6.667"></path>
      </symbol>
      <symbol id="icon-happy" viewBox="0 0 32 32">
         <path
            d="M16 32c8.837 0 16-7.163 16-16s-7.163-16-16-16-16 7.163-16 16 7.163 16 16 16zM16 3c7.18 0 13 5.82 13 13s-5.82 13-13 13-13-5.82-13-13 5.82-13 13-13zM16 18.711c3.623 0 7.070-0.963 10-2.654-0.455 5.576-4.785 9.942-10 9.942s-9.544-4.371-10-9.947c2.93 1.691 6.377 2.658 10 2.658zM8 11c0-1.657 0.895-3 2-3s2 1.343 2 3c0 1.657-0.895 3-2 3s-2-1.343-2-3zM20 11c0-1.657 0.895-3 2-3s2 1.343 2 3c0 1.657-0.895 3-2 3s-2-1.343-2-3z">
         </path>
      </symbol>
      <symbol id="icon-happy2" viewBox="0 0 32 32">
         <path
            d="M16 0c-8.837 0-16 7.163-16 16s7.163 16 16 16 16-7.163 16-16-7.163-16-16-16zM22 8c1.105 0 2 1.343 2 3s-0.895 3-2 3-2-1.343-2-3 0.895-3 2-3zM10 8c1.105 0 2 1.343 2 3s-0.895 3-2 3-2-1.343-2-3 0.895-3 2-3zM16 28c-5.215 0-9.544-4.371-10-9.947 2.93 1.691 6.377 2.658 10 2.658s7.070-0.963 10-2.654c-0.455 5.576-4.785 9.942-10 9.942z">
         </path>
      </symbol>
      <symbol id="icon-sad" viewBox="0 0 32 32">
         <path
            d="M16 32c8.837 0 16-7.163 16-16s-7.163-16-16-16-16 7.163-16 16 7.163 16 16 16zM16 3c7.18 0 13 5.82 13 13s-5.82 13-13 13-13-5.82-13-13 5.82-13 13-13zM8 10c0-1.105 0.895-2 2-2s2 0.895 2 2c0 1.105-0.895 2-2 2s-2-0.895-2-2zM20 10c0-1.105 0.895-2 2-2s2 0.895 2 2c0 1.105-0.895 2-2 2s-2-0.895-2-2zM9.997 24.398l-2.573-1.544c1.749-2.908 4.935-4.855 8.576-4.855s6.827 1.946 8.576 4.855l-2.573 1.544c-1.224-2.036-3.454-3.398-6.003-3.398s-4.779 1.362-6.003 3.398z">
         </path>
      </symbol>
      <!-- Pagination arrow left -->
      <symbol id="icon-arrow-left" viewBox="0 0 32 32">
<path d="M12.586 27.414l-10-10c-0.781-0.781-0.781-2.047 0-2.828l10-10c0.781-0.781 2.047-0.781 2.828 0s0.781 2.047 0 2.828l-6.586 6.586h19.172c1.105 0 2 0.895 2 2s-0.895 2-2 2h-19.172l6.586 6.586c0.39 0.39 0.586 0.902 0.586 1.414s-0.195 1.024-0.586 1.414c-0.781 0.781-2.047 0.781-2.828 0z"></path>
</symbol>
<!-- Pagination arrow right -->
<symbol id="icon-arrow-right" viewBox="0 0 32 32">
<path d="M19.414 27.414l10-10c0.781-0.781 0.781-2.047 0-2.828l-10-10c-0.781-0.781-2.047-0.781-2.828 0s-0.781 2.047 0 2.828l6.586 6.586h-19.172c-1.105 0-2 0.895-2 2s0.895 2 2 2h19.172l-6.586 6.586c-0.39 0.39-0.586 0.902-0.586 1.414s0.195 1.024 0.586 1.414c0.781 0.781 2.047 0.781 2.828 0z"></path>
</symbol>
<!-- Scroll to top button -->
   <symbol id="icon-arrow-up" viewBox="0 0 32 32">
<path d="M16 1l-15 15h9v16h12v-16h9z"></path>
</symbol>
<!-- Scroll to bottom button -->
   <symbol id="icon-arrow-down" viewBox="0 0 32 32">
<path d="M16 31l15-15h-9v-16h-12v16h-9z"></path>
</symbol>
   </defs>
</svg>

